<svg width="77" height="77" viewBox="0 0 77 77" fill="none" xmlns="http://www.w3.org/2000/svg">
<path d="M55.2925 15.4904C55.0159 15.0787 53.5511 12.7847 53.5511 12.7847C52.1367 10.9547 51.1297 9.9051 48.9934 8.17372C46.3791 5.90079 42.2516 4.39299 36.6107 3.65035C31.8376 3.02196 27.1547 3.72052 22.562 5.74601C17.9806 7.68532 14.0818 10.8104 10.8657 15.1212C7.64953 19.432 5.62167 24.776 4.78211 31.1532C3.88582 37.9612 4.40671 43.7284 6.3448 48.4547C8.28289 53.1811 11.2363 56.9015 15.205 59.6157C19.2719 62.2552 23.9522 63.9235 29.246 64.6204C32.6305 65.066 35.6058 64.9317 38.1719 64.2174C39.2095 63.9752 40.1837 63.6976 41.0945 63.3845L42.9935 50.2653C42.7881 50.326 42.5803 50.3829 42.37 50.4359C40.5549 50.8107 38.5626 50.8552 36.393 50.5696C33.7027 50.2154 31.2768 49.1947 29.1152 47.5073C27.0404 45.8314 25.4675 43.6956 24.3967 41.0998C23.3258 38.5041 22.9889 35.6981 23.386 32.6818C23.7831 29.6656 24.7857 27.0798 26.3938 24.9244C28.0018 22.769 29.9758 21.1878 32.3155 20.1808C34.7534 19.099 37.2741 18.7295 39.8776 19.0722C42.2207 19.3807 44.2958 20.0484 46.103 21.0754C47.3932 21.837 49.499 23.4457 50.6412 24.829C51.6079 25.9998 53.5793 28.5035 53.5793 28.5035L55.2925 15.4904Z" fill="#132448"/>
<path d="M56.4043 7.04527L75.2396 10.8401L70.0065 50.5894L51.0011 48.0873L56.4043 7.04527Z" fill="#B3263E"/>
<path d="M57.2117 75.009C54.0875 74.5977 51.6352 73.4419 49.8547 71.5418C48.0856 69.5555 47.3826 67.1835 47.7457 64.4258C48.0974 61.7543 49.3904 59.6451 51.6246 58.0981C53.9457 56.5626 56.6249 55.9948 59.6623 56.3947C62.6997 56.7945 65.0539 58.025 66.7249 60.0861C68.4826 62.1586 69.1856 64.5306 68.8339 67.2021C68.4709 69.9598 67.2213 72.0747 65.0852 73.5469C62.9604 74.9329 60.3359 75.4203 57.2117 75.009Z" fill="#B3263E"/>
</svg>
