<svg width="77" height="77" viewBox="0 0 77 77" fill="none" xmlns="http://www.w3.org/2000/svg">
<path d="M55.2932 15.4905C55.0166 15.0788 53.5517 12.7848 53.5517 12.7848C52.1373 10.9548 51.1303 9.90521 48.9939 8.17381C46.3797 5.90085 42.2521 4.39304 36.6111 3.65039C31.838 3.022 27.155 3.72056 22.5622 5.74608C17.9808 7.68541 14.082 10.8105 10.8658 15.1214C7.64962 19.4323 5.62174 24.7763 4.78217 31.1535C3.88587 37.9616 4.40677 43.7289 6.34488 48.4553C8.28299 53.1817 11.2364 56.9021 15.2052 59.6164C19.2721 62.2559 23.9525 63.9242 29.2463 64.6211C32.6309 65.0667 35.6062 64.9324 38.1723 64.2182C39.21 63.9759 40.1842 63.6983 41.0949 63.3852L42.994 50.2659C42.7886 50.3266 42.5807 50.3834 42.3705 50.4365C40.5554 50.8112 38.563 50.8558 36.3934 50.5701C33.7031 50.216 31.2772 49.1952 29.1155 47.5079C27.0407 45.832 25.4678 43.6961 24.3969 41.1003C23.3261 38.5045 22.9892 35.6985 23.3863 32.6822C23.7834 29.666 24.786 27.0801 26.3941 24.9247C28.0022 22.7693 29.9761 21.188 32.3159 20.181C34.7538 19.0992 37.2745 18.7297 39.878 19.0724C42.2212 19.3809 44.2964 20.0486 46.1035 21.0756C47.3938 21.8372 49.4995 23.446 50.6417 24.8293C51.6085 26.0001 53.5799 28.5038 53.5799 28.5038L55.2932 15.4905Z" fill="#72CBFD"/>
<path d="M56.405 7.04535L75.2405 10.8402L70.0073 50.59L51.0016 48.0878L56.405 7.04535Z" fill="#FFF1A6"/>
<path d="M57.2123 75.0098C54.0881 74.5985 51.6358 73.4428 49.8553 71.5426C48.0862 69.5563 47.3832 67.1842 47.7462 64.4265C48.0979 61.755 49.3909 59.6457 51.6252 58.0988C53.9463 56.5632 56.6255 55.9954 59.663 56.3953C62.7004 56.7952 65.0546 58.0257 66.7256 60.0868C68.4834 62.1593 69.1864 64.5313 68.8347 67.2029C68.4716 69.9606 67.2221 72.0755 65.0859 73.5477C62.9611 74.9338 60.3366 75.4211 57.2123 75.0098Z" fill="#FFF1A6"/>
</svg>
